<!DOCTYPE svg PUBLIC "-//W3C//DTD SVG 20010904//EN" "http://www.w3.org/TR/2001/REC-SVG-20010904/DTD/svg10.dtd">
<svg version="1.0" xmlns="http://www.w3.org/2000/svg" width="344px" height="94px" viewBox="0 0 3440 940" preserveAspectRatio="xMidYMid meet">
<g id="layer1" fill="#ccc7b9" stroke="none">
 <path d="M341 925 c-79 -22 -150 -66 -213 -133 -99 -103 -133 -201 -126 -354 4 -89 9 -105 43 -175 50 -101 123 -174 223 -221 63 -30 86 -36 168 -40 117 -6 199 14 282 67 328 212 276 702 -89 843 -72 27 -213 34 -288 13z m109 -60 c0 -19 -4 -35 -9 -35 -5 0 -23 -3 -41 -6 l-32 -7 21 42 c28 54 61 58 61 6z m99 -4 l20 -39 -42 5 c-23 3 -43 6 -43 7 -1 0 1 16 3 34 7 46 37 43 62 -7z m-203 -2 c-7 -17 -16 -30 -19 -30 -4 1 -12 1 -19 1 -6 0 1 14 17 30 16 17 30 30 31 30 2 0 -3 -14 -10 -31z m289 -16 c16 -21 22 -33 13 -33 -21 0 -34 12 -52 48 -21 42 -3 34 39 -15z m110 -43 c12 -19 -12 -10 -31 11 -19 22 -19 22 3 10 12 -6 25 -16 28 -21z m-537 -2 c-2 -6 -15 -15 -28 -20 -23 -9 -23 -8 -5 12 20 22 39 27 33 8z m232 -68 c0 -53 -2 -60 -19 -60 -14 0 -21 8 -23 28 -2 19 -9 28 -25 30 -17 2 -23 10 -23 27 0 24 13 32 63 34 27 1 27 0 27 -59z m164 -3 c10 -32 17 -60 14 -62 -2 -3 -34 -2 -71 2 l-67 6 0 59 0 59 53 -3 52 -3 19 -58z m48 20 c-5 -20 -6 -20 -13 -1 -11 29 -10 34 5 28 8 -3 12 -13 8 -27z m-487 -34 c-4 -10 -16 -41 -27 -69 -15 -40 -29 -56 -60 -74 l-40 -22 7 23 c22 71 51 123 79 140 39 24 50 24 41 2z m653 -7 c2 -10 13 -27 23 -37 19 -19 28 -37 43 -86 10 -32 -9 -29 -46 7 -21 22 -29 38 -27 58 2 16 -5 41 -15 56 -17 27 -17 28 1 24 10 -2 19 -11 21 -22z m-378 -131 c0 -63 2 -61 -87 -70 -58 -5 -62 -4 -56 12 4 10 13 24 20 31 7 7 13 19 13 27 0 7 15 16 34 19 19 4 39 13 46 21 22 27 30 16 30 -40z m157 49 c26 -5 29 -9 25 -35 -5 -31 -11 -33 -75 -29 -25 1 -45 -4 -58 -16 -18 -17 -19 -16 -19 12 0 63 9 74 55 74 23 0 56 -3 72 -6z m-440 -76 c-3 -8 -6 -5 -6 6 -1 11 2 17 5 13 3 -3 4 -12 1 -19z m-47 -18 c0 -10 -37 -33 -60 -36 -8 -2 -1 8 15 22 32 26 45 30 45 14z m105 -22 c27 12 45 9 45 -9 0 -7 -101 -59 -116 -59 -2 0 -4 15 -4 33 0 43 18 63 36 40 10 -15 16 -15 39 -5z m683 -17 c3 -10 0 -10 -17 -2 -25 14 -27 20 -4 17 9 -2 19 -8 21 -15z m-458 -65 l0 -53 -47 -6 c-27 -3 -55 -8 -64 -12 -18 -7 -29 19 -29 72 0 29 3 33 38 38 20 4 42 8 47 10 6 2 20 4 33 4 20 1 22 -3 22 -53z m-349 34 c21 -12 26 -50 6 -50 -19 0 -37 21 -37 42 0 21 4 22 31 8z m174 -71 c10 -73 -8 -81 -57 -27 -21 22 -38 42 -38 44 0 5 62 32 77 33 6 1 14 -21 18 -50z m245 -5 c0 -8 -6 -11 -15 -8 -8 4 -15 15 -15 26 0 17 3 18 15 8 8 -7 15 -19 15 -26z m260 -4 c0 -6 -8 -13 -17 -16 -10 -3 -26 -10 -35 -15 -12 -6 -18 -6 -18 2 0 8 -5 8 -15 -1 -13 -10 -15 -9 -15 8 0 15 8 22 28 25 52 8 72 7 72 -3z m-330 -98 l0 -57 -44 -11 c-41 -9 -45 -8 -50 10 -3 11 -2 23 2 26 4 3 9 17 10 32 1 22 -2 25 -21 21 -15 -4 -19 -2 -12 5 6 6 33 15 60 20 28 5 51 10 53 11 1 0 2 -25 2 -57z m74 43 c3 -8 15 -15 26 -15 26 0 26 -30 0 -37 -20 -5 -29 -33 -10 -33 6 0 10 -4 10 -10 0 -5 -13 -10 -30 -10 l-30 0 0 60 c0 45 4 60 14 60 8 0 16 -7 20 -15z m251 5 c-3 -5 -13 -10 -21 -10 -8 0 -14 5 -14 10 0 6 9 10 21 10 11 0 17 -4 14 -10z m-505 -111 c0 -24 -35 -2 -38 24 l-3 28 20 -20 c12 -12 21 -26 21 -32z m340 32 c0 -17 -12 -41 -21 -41 -10 0 -12 33 -2 43 9 10 23 9 23 -2z m79 -15 c9 -10 8 -15 -4 -20 -10 -4 -15 1 -15 14 0 24 4 25 19 6z m-384 -46 c3 -5 2 -10 -4 -10 -5 0 -13 5 -16 10 -3 6 -2 10 4 10 5 0 13 -4 16 -10z m155 -81 c0 -52 -4 -78 -10 -74 -14 9 -73 126 -66 132 3 3 20 9 38 13 18 4 34 8 36 9 1 1 2 -35 2 -80z m111 71 c17 0 16 -7 -16 -69 -43 -87 -55 -95 -55 -39 0 24 -3 61 -7 82 l-6 39 33 -6 c18 -4 41 -7 51 -7z m-346 -10 c3 -6 -1 -7 -9 -4 -18 7 -21 14 -7 14 6 0 13 -4 16 -10z m555 -8 c0 -11 -37 -32 -44 -25 -11 11 -6 21 12 26 28 8 32 7 32 -1z m-136 -8 c9 -3 16 -11 16 -17 0 -13 -70 -87 -82 -87 -4 0 4 25 19 55 15 30 28 55 29 55 1 0 9 -3 18 -6z m-395 -20 c2 -2 -4 -7 -13 -10 -11 -4 -24 0 -34 10 -16 16 -15 17 13 10 17 -4 32 -8 34 -10z m141 -92 c0 -3 -18 13 -40 37 -44 47 -48 58 -23 63 13 2 24 -10 40 -45 13 -27 23 -52 23 -55z m320 63 c0 -2 -10 -10 -22 -16 -21 -11 -22 -11 -9 4 13 16 31 23 31 12z m-419 -22 c13 -15 12 -15 -8 -4 -24 12 -29 21 -14 21 5 0 15 -7 22 -17z"/>
 <path d="M1031 724 c-12 -15 -21 -37 -21 -49 0 -37 30 -125 91 -268 32 -77 59 -144 59 -150 0 -6 -7 -19 -16 -29 -26 -28 -2 -48 57 -48 90 0 88 32 -18 274 -36 81 -68 166 -70 187 -5 35 -4 39 17 39 48 0 129 -118 256 -372 l65 -129 37 3 c34 3 37 5 36 33 -1 17 -22 83 -48 147 -52 134 -92 278 -82 303 5 14 14 16 41 11 30 -6 35 -4 35 13 0 31 -47 61 -95 61 -61 0 -78 -22 -73 -99 1 -33 0 -57 -4 -53 -3 4 -23 27 -43 51 -60 73 -103 100 -157 101 -39 0 -50 -4 -67 -26z"/>
 <path d="M1492 738 c-18 -18 -15 -31 22 -132 44 -120 51 -153 36 -182 -20 -37 -7 -54 44 -54 52 0 72 23 61 68 -6 23 -1 20 35 -21 33 -38 48 -47 74 -47 38 0 56 15 56 48 0 51 -46 82 -76 52 -20 -20 -84 60 -137 172 -46 95 -55 108 -77 108 -15 0 -31 -5 -38 -12z"/>
 <path d="M2075 730 c-47 -52 -20 -198 70 -374 25 -49 44 -91 41 -93 -2 -2 -24 2 -49 9 -37 9 -48 9 -62 -2 -44 -37 21 -90 111 -90 41 0 55 5 74 25 37 39 31 77 -34 210 -67 137 -86 187 -86 222 0 19 14 4 60 -66 66 -101 191 -238 243 -266 37 -20 87 -15 87 9 0 8 -18 41 -40 73 -54 79 -94 234 -74 287 12 32 56 18 106 -34 105 -109 153 -269 117 -389 -12 -40 -11 -45 6 -57 10 -8 34 -14 52 -14 29 0 36 5 49 35 58 140 -60 414 -220 505 -69 40 -141 42 -177 4 -22 -23 -24 -34 -24 -115 0 -48 -2 -85 -6 -81 -15 17 -128 170 -144 195 -22 34 -72 37 -100 7z"/>
 <path d="M2777 729 c-85 -66 -38 -249 84 -331 33 -22 53 -28 96 -28 69 0 103 29 103 88 0 78 -76 144 -182 158 -54 7 -64 28 -29 63 17 17 26 18 53 10 18 -5 46 -18 62 -30 26 -19 30 -20 44 -5 23 22 1 63 -43 82 -53 22 -156 19 -188 -7z m112 -174 c65 -33 109 -125 61 -125 -25 0 -53 28 -80 79 -31 63 -28 71 19 46z"/>
 <path d="M3120 722 c-44 -45 -42 -104 14 -280 24 -77 52 -173 61 -213 20 -91 26 -103 54 -107 32 -5 51 15 51 53 0 29 -35 164 -56 220 -7 18 -6 18 20 -3 42 -33 114 -31 147 4 21 22 24 35 24 97 0 62 -4 80 -31 127 -46 80 -109 123 -190 128 -60 4 -65 2 -94 -26z m150 -62 c62 -62 94 -209 47 -218 -53 -10 -178 213 -140 251 17 18 56 4 93 -33z"/>
 </g>

</svg>